<?xml version="1.0" standalone="no"?>
<!DOCTYPE svg PUBLIC "-//W3C//DTD SVG 1.1//EN" "http://www.w3.org/Graphics/SVG/1.1/DTD/svg11.dtd" >
<!--
2013-9-30: Created.
-->
<svg>
<metadata>
Created by iconfont
</metadata>
<defs>

<font id="iconfont" horiz-adv-x="1024" >
  <font-face
    font-family="iconfont"
    font-weight="500"
    font-stretch="normal"
    units-per-em="1024"
    ascent="896"
    descent="-128"
  />
    <missing-glyph />
    
    <glyph glyph-name="x" unicode="x" horiz-adv-x="1001"
d="M281 543q-27 -1 -53 -1h-83q-18 0 -36.5 -6t-32.5 -18.5t-23 -32t-9 -45.5v-76h912v41q0 16 -0.5 30t-0.5 18q0 13 -5 29t-17 29.5t-31.5 22.5t-49.5 9h-133v-97h-438v97zM955 310v-52q0 -23 0.5 -52t0.5 -58t-10.5 -47.5t-26 -30t-33 -16t-31.5 -4.5q-14 -1 -29.5 -0.5
t-29.5 0.5h-32l-45 128h-439l-44 -128h-29h-34q-20 0 -45 1q-25 0 -41 9.5t-25.5 23t-13.5 29.5t-4 30v167h911zM163 247q-12 0 -21 -8.5t-9 -21.5t9 -21.5t21 -8.5q13 0 22 8.5t9 21.5t-9 21.5t-22 8.5zM316 123q-8 -26 -14 -48q-5 -19 -10.5 -37t-7.5 -25t-3 -15t1 -14.5
t9.5 -10.5t21.5 -4h37h67h81h80h64h36q23 0 34 12t2 38q-5 13 -9.5 30.5t-9.5 34.5q-5 19 -11 39h-368zM336 498v228q0 11 2.5 23t10 21.5t20.5 15.5t34 6h188q31 0 51.5 -14.5t20.5 -52.5v-227h-327z" />
    

    
    <glyph glyph-name="xiajiantou" unicode="&#58885;" d="M695.6399 427.4616 515.1568 205.1813 334.6738 427.4616Z"  horiz-adv-x="1000" />

    
    <glyph glyph-name="mima" unicode="&#58908;" d="M510.37499 241.668477c-32.223912 0-58.33664-26.112728-58.33664-58.33664 0-17.281595 7.510044-32.79594 19.445888-43.479257l0-53.745065c0-21.484314 17.408485-38.892799 38.891775-38.892799 21.478174 0 38.892799 17.408485 38.892799 38.892799l0 53.745065c11.935843 10.682293 19.445888 26.197662 19.445888 43.479257C568.712653 215.555749 542.599925 241.668477 510.37499 241.668477L510.37499 241.668477 510.37499 241.668477zM782.617417 416.67021l-38.891775 0 0 97.224322c0 128.884392-104.467283 233.344512-233.351676 233.344512-128.888486 0-233.355769-104.46012-233.355769-233.344512l0-97.224322-38.890752 0c-53.703109 0-97.229438-43.526329-97.229438-97.224322l0-369.46675c0-53.691853 43.526329-97.218182 97.229438-97.218182l544.489972 0c53.686736 0 97.229438 43.521213 97.229438 97.218182L879.846856 319.446911C879.846856 373.148997 836.304154 416.67021 782.617417 416.67021L782.617417 416.67021 782.617417 416.67021zM510.37499 708.348292c107.390869 0 194.458877-87.063915 194.458877-194.447621l0-97.229438L315.937602 416.671233l0 97.229438-0.025583 0C315.91202 621.283354 402.986167 708.348292 510.37499 708.348292L510.37499 708.348292 510.37499 708.348292zM840.956104-50.014722c0-32.223912-26.112728-58.331523-58.338686-58.331523L238.128469-108.346245c-32.225959 0-58.338686 26.107611-58.338686 58.331523L179.789783 319.446911c0 32.225959 26.112728 58.338686 58.338686 58.338686l544.489972 0c32.225959 0 58.338686-26.112728 58.338686-58.338686L840.957127-50.014722 840.956104-50.014722 840.956104-50.014722zM840.956104-50.014722"  horiz-adv-x="1024" />

    
    <glyph glyph-name="cntencentwechat" unicode="&#58936;" d="M862.049248 502.18256c14.595825 0 29.053048-1.055505 43.392993-2.601447C866.452517 678.814431 672.303524 812 450.679411 812 202.912885 812 0 645.294143 0 433.585382c0-122.150742 67.477703-222.509032 180.310146-300.360539l-45.056213-133.825269 157.536821 77.968785c56.400229-10.981519 101.627029-22.282888 157.877995-22.282888 14.148035 0 28.189453 0.671685 42.102931 1.759175-8.8172 29.746057-13.913478 60.899453-13.913478 93.225634C478.868864 344.432506 647.888302 502.18256 862.049248 502.18256zM619.688188 622.808683c33.946754 0 56.378906-22.016347 56.378906-55.515311 0-33.349701-22.432152-55.717882-56.378906-55.717882-33.776167 0-67.64829 22.368182-67.64829 55.717882C552.039898 600.792337 585.901359 622.808683 619.688188 622.808683zM304.26271 511.575491c-33.797491 0-67.872185 22.368182-67.872185 55.717882 0 33.498964 34.085356 55.515311 67.872185 55.515311 33.797491 0 56.250966-22.016347 56.250966-55.515311C360.503014 533.943672 338.060201 511.575491 304.26271 511.575491zM1273.376438 155.379791c0 177.889947-180.299485 322.909969-382.828549 322.909969-214.480795 0-383.361633-145.020022-383.361633-322.909969 0-178.156489 168.880837-322.814014 383.361633-322.814014 44.853642 0 90.13375 11.130782 135.23261 22.282888l123.654037-66.838003-33.914769 111.233193C1205.962705-33.779541 1273.376438 55.074809 1273.376438 155.379791zM766.275475 211.07635c-22.453475 0-45.066875 22.016347-45.066875 44.533791 0 22.133625 22.6134 44.469821 45.066875 44.469821 34.074694 0 56.378906-22.336197 56.378906-44.469821C822.654381 233.082034 800.350169 211.07635 766.275475 211.07635zM1014.201926 211.07635c-22.304212 0-44.800333 22.016347-44.800333 44.533791 0 22.133625 22.496122 44.469821 44.800333 44.469821 33.754844 0 56.378906-22.336197 56.378906-44.469821C1070.580832 233.082034 1047.946109 211.07635 1014.201926 211.07635z"  horiz-adv-x="1274" />

    
    <glyph glyph-name="renminbi" unicode="&#58947;" d="M538.506189 282.091118 929.252591 747.76093 857.307002 747.76093 511.037581 334.821063 164.776346 747.76093 92.824617 747.76093 483.569996 282.091118 483.569996 259.937562 167.122787 259.937562 167.122787 205.002392 483.569996 205.002392 483.569996-146.527846 538.506189-146.527846 538.506189 205.002392 854.953398 205.002392 854.953398 259.937562 538.506189 259.937562Z"  horiz-adv-x="1024" />

    
    <glyph glyph-name="nsiconkrb" unicode="&#58882;" d="M391.402341 247.259822 405.425729 152.93862 407.972738 152.93862 423.904593 247.259822 431.55176 286.770697 384.393717 286.770697ZM509.301542 442.272307 492.732168 325.64917 529.695011 325.64917 512.487094 442.272307ZM510.577604 749.929316c-248.349251 0-449.675536-201.326285-449.675536-449.675536 0-248.349251 201.326285-449.676559 449.675536-449.676559S960.254164 51.904529 960.254164 300.25378C960.254164 548.603031 758.926856 749.929316 510.577604 749.929316zM783.979438 286.770697l-75.202773 0-48.434106-219.86757-80.935334 0-43.972491 219.86757-48.434106 0-42.701544-219.86757-77.113285 0-50.981115 219.86757-79.026868 0 0 34.415834 51.618635 4.461615 17.84646 0-49.071625 211.581859 83.482343 0 36.963866-211.581859 61.180408 0 35.054377 182.903703 77.112262 0 36.963866-182.903703 63.089897 0 35.054377 211.581859 77.750805 0-46.524616-211.581859 66.280566 0L783.979438 286.770697zM604.261287 247.259822 620.193141 152.93862 623.37767 152.93862 638.039601 247.259822 644.409682 286.770697 595.975577 286.770697Z"  horiz-adv-x="1024" />

    
    <glyph glyph-name="nsiconhbw" unicode="&#58897;" d="M720.376864 293.784438l-57.400315 0-36.96796-167.82631-61.782112 0L530.659989 293.784438l-36.96796 0-32.597419-167.82631-58.853409 0-38.916335 167.82631L302.994826 293.784438l0 26.272363 39.401382 3.40147 13.629415 0-37.46324 161.506371 63.730487 0 28.215622-161.506371 46.699602 0 26.751271 139.615804 58.864666 0 28.215622-139.615804 48.152696 0 26.762527 161.506371 59.338457 0-35.503609-161.506371 50.586119 0L720.375841 293.784438zM451.361945 293.784438 415.374312 293.784438l5.349845-30.15888 10.700713-71.992661 1.948375 0 12.153808 71.992661L451.361945 293.784438zM498.06257 323.459295l28.215622 0-13.134135 89.023546-2.433422 0L498.06257 323.459295zM613.843526 293.784438l-36.96796 0 6.318916-30.15888 12.165064-71.992661 2.433422 0 11.184737 71.992661L613.843526 293.784438zM511.685845 748.371844c-247.334131 0-447.837678-200.503547-447.837678-447.837678s200.503547-447.837678 447.837678-447.837678 447.837678 200.503547 447.837678 447.837678S759.019976 748.371844 511.685845 748.371844zM511.685845-124.789753c-234.899938 0-425.323918 190.423981-425.323918 425.323918S276.785907 725.858084 511.685845 725.858084s425.323918-190.423981 425.323918-425.323918S746.585783-124.789753 511.685845-124.789753z"  horiz-adv-x="1024" />

    
    <glyph glyph-name="goumaishuliangjiahao" unicode="&#58987;" d="M923.31895 335.467793 547.4637 335.467793 547.4637 712.347372c0 19.580964-15.878642 35.462676-35.464723 35.462676s-35.4637-15.880689-35.4637-35.462676l0-376.87958L98.632391 335.467793c-19.587104 0-35.4637-15.878642-35.4637-35.467793 0-19.584034 15.876596-35.462676 35.4637-35.462676l377.902886 0 0-376.87958c0-19.589151 15.876596-35.467793 35.4637-35.467793s35.464723 15.878642 35.464723 35.467793L547.4637 264.538347l375.85525 0c19.587104 0 35.464723 15.878642 35.464723 35.462676C958.784696 319.589151 942.906054 335.467793 923.31895 335.467793z"  horiz-adv-x="1024" />

    
    <glyph glyph-name="fangzi" unicode="&#58982;" d="M514.111592 708.525324l193.374172-158.358681 0.130983 79.842443 138.196479-0.132006 0.355087-190.762695 114.502847-121.31295-30.769794-32.890085-153.49593 166.93194 26.172079 11.31879 0.9967 124.338866-53.650921-0.065492-0.393973-111.538329L709.205942 491.484126l-196.399065 159.482271L92.754009 284.91135l-27.588335 32.890085L514.111592 708.525324 514.111592 708.525324zM178.165284-133.659771l235.017618 0 0.354064 239.257176 197.35074 0.355087 0.708128-239.61124 234.486522 0 0 368.993982-42.444694 0 0-327.08243L653.502269-91.747195 653.502269 149.102245l-282.763039-0.531096 0-240.320391L220.603839-91.749242 220.603839 235.334211l-42.438555 0L178.165284-133.659771 178.165284-133.659771 178.165284-133.659771zM178.165284-133.659771"  horiz-adv-x="1024" />

    
    <glyph glyph-name="jiantouxia" unicode="&#59043;" d="M949.923 667.13c39.694 39.786 28.163 103.458-22.415 126.327-4.773 2.157-9.665 4.423-14.848 5.313-10.461 1.798-21.291 1.189-31.838 0-22.346-2.52-37.223-19.644-52.471-34.944C724.52 659.656 620.436 555.735 516.431 451.735c-1.358-1.36-2.78-2.665-4.93-4.717-1.475 1.894-2.548 3.619-3.947 5.016C400.17 559.452 292.767 666.856 185.325 774.216c-3.744 3.741-7.77 7.225-11.882 10.556-8.783 7.117-18.912 12.306-29.878 13.998-10.487 1.619-23.418 2-34.517-1.099C77.47 788.854 58.328 768.027 51.738 735.837c-0.787-3.849-1.141-7.79-1.699-11.688 0.001-0.993 0.001-1.99 0.001-2.983 0.48-3.426 0.898-6.862 1.449-10.275 2.758-17.094 10.55-31.565 22.757-43.767 126.747-126.719 253.63-253.3 380.115-380.281 30.992-31.114 84.695-31.013 115.521-0.068C696.363 413.759 823.333 540.251 949.923 667.13zM51.739 735.839 50.04 724.152C50.597 728.05 50.95 731.99 51.739 735.839zM50.042 260.509c-0.002-0.995-0.002-1.989-0.002-2.984 0.476-3.428 0.883-6.864 1.434-10.28 2.754-17.091 10.519-31.578 22.727-43.785 126.747-126.717 253.636-253.293 380.106-380.284 31.053-31.178 85.096-31.004 117.031 1.168C696.667-49.402 822.736 76.12 948.526 201.922c1.757 1.757 3.488 3.55 5.112 5.428 19.968 23.008 25.524 49.345 15.321 77.818-10.146 28.3-31.023 45.324-60.917 49.996-26.441 4.138-48.935-4.445-67.731-23.249-42.074-42.098-84.171-84.178-126.26-126.267-65.77-65.77-131.544-131.535-197.29-197.326-1.4-1.402-2.497-3.103-5.076-6.348-1.817 2.812-2.699 4.891-4.184 6.375-107.585 107.659-215.249 215.242-322.81 322.927-16.962 16.978-36.947 25.61-61.101 24.84-36.807-1.177-69.847-32.535-72.609-69.272C50.821 264.721 50.362 262.62 50.042 260.509z"  horiz-adv-x="1024" />

    
    <glyph glyph-name="jintoudown" unicode="&#58906;" d="M1016.376953 535.340351c11.677193 12.575439 10.778947 33.235088-1.796491 44.912281-13.473684 11.677193-33.235088 10.778947-45.810526-1.796491L512.461163 89.810526 56.152391 577.557895c-11.677193 12.575439-32.336842 13.473684-45.810526 1.796491-13.473684-11.677193-13.473684-32.336842-1.796491-44.912281l479.663158-512.898246c6.287719-6.287719 14.37193-9.880702 22.45614-9.880702 8.982456-0.898246 18.863158 2.694737 25.150877 9.880702L1016.376953 535.340351 1016.376953 535.340351zM1016.376953 535.340351"  horiz-adv-x="1025" />

    
    <glyph glyph-name="hk" unicode="&#58887;" d="M261.368264 276.011656l-164.015517 0 0-418.863786L61.578985-142.85213 61.578985 747.227788l35.772738 0 0-356.532159 164.015517 0L261.367241 747.227788l35.773761 0 0-890.080941-35.773761 0L261.367241 276.011656zM457.39894 290.967276l-53.869908-143.360082 0-290.460348-43.923372 0L359.605659 747.227788l43.923372 0 0-447.533756L568.870754 747.227788l62.155618 0L490.55099 378.230736l148.350746-521.082866-60.501956 0L457.39894 290.967276zM803.145451 267.726969c-59.269895 18.707061-127.5807 52.1835-127.5807 194.95211 0 141.78112 67.305919 196.920952 127.5807 196.920952L803.145451 747.227788l24.111141 0 0-87.62878c85.891206-2.953262 126.075417-80.737836 130.092917-191.997825l-50.228985 0c-4.52199 71.876004-33.654494 105.352443-79.863932 109.290125l0-221.535559c98.448196-31.506575 139.636271-80.736812 139.636271-204.798363 0-145.719826-69.819159-205.78176-139.636271-205.78176l0-87.629803L803.145451-142.854177l0 87.629803c-71.827909 0-134.61286 76.79913-134.61286 218.582297l50.228985 0c1.506307-49.230238 16.07307-127.997186 84.383876-135.874597L803.145451 267.726969zM803.145451 576.891308c-48.220235-4.922103-77.352739-40.368406-77.352739-107.320261 0-59.07649 27.626197-97.476055 77.352739-108.306728L803.145451 576.891308zM827.256592 27.48435c61.781088 0 89.407286 50.214658 89.407286 112.24441 0 63.999616-24.613584 102.396111-89.407286 119.139447L827.256592 27.48435zM670.889265-65.214912l82.993203 0 0-77.638241-82.993203 0L670.889265-65.214912z"  horiz-adv-x="1024" />

    
    <glyph glyph-name="jiantouyou" unicode="&#59071;" d="M258.176-91.552 315.712-149.088 766.336 301.6 764.352 303.456 764.736 303.84 322.688 745.824 264.704 687.904 651.136 301.408Z"  horiz-adv-x="1024" />

    
    <glyph glyph-name="font34" unicode="&#58950;" d="M542.592-84l0 77.12c66.496 2.56 120.704 21.44 162.56 56.768C747.072 85.28 768 129.312 768 182.176c0 24-4.992 46.336-15.04 66.944-10.048 20.608-24.384 38.4-43.008 53.376-18.688 14.976-42.752 27.712-72.32 38.144C622.144 346.08 590.464 353.568 542.592 363.168L542.592 583.136C573.568 578.016 597.952 567.52 615.744 551.584c17.792-15.936 29.504-38.912 35.136-68.864l98.176 11.84c-8.448 48.32-33.408 86.336-74.944 113.984-32.384 21.76-76.16 34.752-131.456 38.976L542.656 684 486.656 684l0-36.416C423.68 642.464 376.192 628.64 344.128 606.048c-47.872-33.664-71.808-77.568-71.808-131.84 0-30.528 8.192-57.792 24.576-81.792 16.384-24 39.68-42.816 69.952-56.384 40.832-18.368 80.768-30.528 119.808-36.48l0-242.88c-37.312 3.136-69.312 18.24-96.064 45.376-18.624 19.2-31.68 49.28-39.04 90.304L256 177.952c3.52-39.552 16.128-73.024 37.76-100.416 21.632-27.392 47.296-47.232 77.056-59.584 29.76-12.288 68.352-20.8 115.84-25.664L486.656-84 542.592-84zM486.656 372.896C443.392 383.328 412.672 397.344 394.56 414.88 376.448 432.352 367.36 454.112 367.36 480.16c0 26.304 10.624 49.024 31.936 68.224 21.312 19.2 50.432 31.104 87.36 35.584L486.656 372.896zM542.592 288.992c51.008-13.312 85.056-28.352 102.144-45.12 17.088-16.832 25.6-39.04 25.6-66.752 0-32.512-12.032-59.776-36.16-81.792-24.128-22.016-54.656-34.88-91.584-38.592L542.592 288.992z"  horiz-adv-x="1024" />

    
    <glyph glyph-name="custom-wechat" unicode="&#58946;" d="M498.816 550.944c26.336 0 43.936 17.632 43.936 43.904 0 26.56-17.568 43.744-43.936 43.744s-52.832-17.184-52.832-43.744c0.032-26.272 26.496-43.904 52.832-43.904zM253.088 638.592c-26.336 0-52.96-17.184-52.96-43.744 0-26.272 26.624-43.904 52.96-43.904 26.24 0 43.808 17.632 43.808 43.904-0.032 26.56-17.568 43.744-43.808 43.744zM1024 269.888c0 138.88-128.832 257.216-286.976 269.536 0.224 1.728 0.32 3.52-0.064 5.312-31.712 147.84-190.688 259.296-369.824 259.296-202.432 0-367.136-141.152-367.136-314.656 0-93.088 47.52-176.96 137.568-243.104l-31.392-94.368c-2.016-6.144-0.192-12.896 4.704-17.152 2.976-2.56 6.72-3.904 10.496-3.904 2.432 0 4.896 0.576 7.168 1.696l117.856 58.976 14.528-2.944c36.288-7.456 67.616-13.92 106.208-13.92 11.36 0 22.88 0.512 34.176 1.472 4.576 0.384 8.448 2.688 11.072 6.016 42.496-106.336 159.616-183.104 297.44-183.104 35.296 0 71.040 8.512 103.104 16.544l90.848-49.664c2.4-1.312 5.056-1.984 7.68-1.984 3.584 0 7.168 1.216 10.048 3.552 5.056 4.096 7.136 10.848 5.248 17.024l-23.2 77.152c77.792 61.472 120.448 135.008 120.448 208.224zM398.592 208.032c-10.4-0.896-20.96-1.344-31.424-1.344-35.328 0-65.216 6.112-99.776 13.248l-20.096 4.064c-3.456 0.736-7.104 0.256-10.272-1.376l-88.288-44.192 22.944 68.928c2.24 6.752-0.224 14.112-6.016 18.176-88.704 61.824-133.664 137.152-133.664 223.84 0 155.84 150.336 282.656 335.136 282.656 163.36 0 308-99.392 337.856-231.584-171.296-2.24-309.888-122.656-309.888-270.56 0-21.504 3.264-42.336 8.768-62.432-1.664 0.416-3.424 0.736-5.28 0.576zM875.456 80.448c-5.344-4.032-7.616-10.976-5.696-17.376l15.136-50.336-62.112 33.984c-2.368 1.312-5.024 1.984-7.68 1.984-1.312 0-2.624-0.16-3.904-0.512-33.312-8.416-67.776-17.088-101.344-17.088-155.904 0-282.72 107.136-282.72 238.816 0 131.68 126.816 238.784 282.72 238.784 152.928 0 282.144-109.344 282.144-238.784 0-65.664-41.376-132.96-116.544-189.472zM612.992 384.032c-17.568 0-35.136-17.696-35.136-35.232 0-17.664 17.568-35.104 35.136-35.104 26.4 0 43.84 17.44 43.84 35.104 0 17.568-17.44 35.232-43.84 35.232zM806.016 384.032c-17.312 0-34.88-17.696-34.88-35.232 0-17.664 17.568-35.104 34.88-35.104 26.304 0 44.064 17.44 44.064 35.104 0 17.568-17.728 35.232-44.064 35.232z"  horiz-adv-x="1024" />

    
    <glyph glyph-name="3" unicode="&#59259;" d="M603.534222 140.231111c-16.867556 0-30.520889 13.624889-30.520889 30.464L573.013333 505.884444c0 16.839111 13.624889 30.464 30.520889 30.464s30.520889-13.624889 30.520889-30.464l0-335.189333C634.055111 153.856 620.401778 140.231111 603.534222 140.231111L603.534222 140.231111 603.534222 140.231111zM420.465778 140.231111c-16.867556 0-30.520889 13.624889-30.520889 30.464L389.944889 505.884444c0 16.839111 13.624889 30.464 30.520889 30.464 16.867556 0 30.520889-13.624889 30.520889-30.464l0-335.189333C450.958222 153.856 437.333333 140.231111 420.465778 140.231111L420.465778 140.231111 420.465778 140.231111zM908.686222 658.232889l-152.576 0L756.110222 719.189333c0 50.403556-40.732444 91.420444-90.851556 91.420444L359.424 810.609778c-50.460444 0-91.534222-41.016889-91.534222-91.420444l0-60.956444L115.313778 658.232889c-16.867556 0-30.520889-13.624889-30.520889-30.464 0-16.839111 13.624889-30.464 30.520889-30.464l793.344 0c16.867556 0 30.520889 13.624889 30.520889 30.464C939.178667 644.608 925.553778 658.232889 908.686222 658.232889L908.686222 658.232889 908.686222 658.232889zM328.931556 719.189333c0 16.782222 13.710222 30.464 30.520889 30.464l305.834667 0c16.725333 0 29.809778-13.368889 29.809778-30.464l0-60.956444L328.931556 658.232889 328.931556 719.189333 328.931556 719.189333 328.931556 719.189333zM725.731556-42.581333 298.467556-42.581333c-50.460444 0-91.534222 41.016889-91.534222 91.420444L206.933333 506.339556c0 16.810667 13.681778 30.464 30.520889 30.464 16.839111 0 30.520889-13.653333 30.520889-30.464l0-457.528889c0-16.810667 13.710222-30.464 30.520889-30.464l427.264 0c16.839111 0 30.520889 13.653333 30.520889 30.464L756.280889 505.088c0 16.810667 13.653333 30.464 30.520889 30.464 16.867556 0 30.520889-13.653333 30.520889-30.464l0-456.277333C817.265778-1.592889 776.192-42.581333 725.731556-42.581333L725.731556-42.581333 725.731556-42.581333zM725.731556-42.581333"  horiz-adv-x="1024" />

    
    <glyph glyph-name="zhifubaohaoyou" unicode="&#59026;" d="M578.513518 244.607882C578.513518 244.607882 512.015992 191.384274 487.819082 177.438664 466.54883 165.188278 446.589978 157.04801 428.82212 151.386605 411.022278 145.741192 395.429424 142.190818 382.043558 140.719493 368.657693 139.248168 357.574771 138.320592 348.778803 137.88879 347.947184 137.488973 346.891667 137.265075 345.64424 137.265075L335.600843 137.265075C312.587389 137.265075 290.933314 139.98383 270.638614 145.437331 250.327923 150.874838 232.656022 158.935144 217.590925 169.602256 202.525829 180.269366 190.595298 193.671226 181.81532 209.775845 173.035344 225.896458 168.63736 244.623875 168.63736 265.958098 169.05317 284.365661 174.074867 301.109989 183.686464 316.175083 193.330045 331.240179 205.772342 344.002331 221.045342 354.47753 236.318342 364.952728 253.270573 372.885093 271.902035 378.338594 290.517504 383.776102 309.24492 386.063054 328.084288 385.231435 346.491851 384.399816 364.275702 382.208821 381.435837 378.658448 398.595973 375.092082 415.036438 370.806046 430.709256 365.784347 446.398067 360.76265 461.255258 355.325141 475.280829 349.45583 489.306402 343.58652 502.580318 337.941107 515.134565 332.5036 520.156264 330.40856 525.385866 328.31352 530.823374 326.21848 536.260883 324.12344 541.906296 322.028402 547.775606 319.93336 559.914043 335.414266 570.149352 350.575318 578.529512 365.448501 586.893678 380.305693 593.802512 393.899462 599.240021 406.245805 604.69352 418.592147 608.883602 428.939405 611.810259 437.319563 614.736918 445.683731 616.608061 451.537048 617.455672 454.895509L345.004531 454.895509 345.004531 485.025701 473.697554 485.025701 473.697554 554.689774 294.787546 554.689774 294.787546 584.819966 473.697554 584.819966 473.697554 641.322072C473.697554 645.08035 475.776602 648.118958 479.96668 650.421902 484.15676 652.724848 488.970555 654.292128 494.408062 655.123747 500.693182 656.387168 507.793928 657.010883 515.742286 657.010883L564.072138 657.010883 564.072138 584.819968 747.987851 584.819968 747.987851 554.689776 564.072138 554.689776 564.072138 485.025702 710.229155 485.025702C710.261141 485.233608 710.293126 485.441512 710.32511 485.649418L710.32511 485.025702 710.229154 485.025702C707.27051 466.378248 702.296789 446.707262 695.260014 426.012747 689.406696 408.020992 680.722677 387.518389 669.207954 364.504934 657.69323 341.491482 642.532179 317.838322 623.692813 293.561448 623.692813 293.561448 767.75479 224.649029 919.829098 200.388147 945.081525 256.39448 959.155075 318.557992 959.155075 383.984008 959.155075 630.926837 758.942829 831.12309 512 831.12309 265.041178 831.12309 64.844925 630.926837 64.844925 383.984008 64.844925 137.041179 265.041179-63.171067 512-63.171067 665.1778-63.171067 800.363846 13.865629 880.950915 131.29981 799.06844 149.147629 712.084304 185.275072 578.513518 244.607882L578.513518 244.607882 578.513518 244.607882ZM226.994614 264.694677C225.315384 187.961842 312.123602 182.268451 325.509467 181.852642 369.761187 180.493266 405.488813 197.205606 433.300067 213.726035 461.127315 230.262458 506.514515 272.946894 508.209738 274.418221 509.872976 275.889547 511.552205 277.440835 513.215443 279.120066 501.077006 285.820995 489.146474 291.994166 477.439838 297.639578 465.733203 303.28499 406.192491 335.270333 353.368699 340.723834 253.334542 351.103075 227.506379 288.027982 226.994614 264.694677L226.994614 264.694677 226.994614 264.694677Z"  horiz-adv-x="1024" />

    
    <glyph glyph-name="remaipaixingtubiao21" unicode="&#58910;" d="M512 384m-512 0a65 65 0 1 0 1024 0 65 65 0 1 0-1024 0ZM474.978462 107.52c-179.593846 4.726154-247.335385 115.790769-171.716923 289.083077 9.452308-11.815385 16.541538-24.418462 25.993846-33.083077 7.876923-7.089231 20.48-9.452308 30.72-14.178462 2.363077 11.027692 8.664615 22.055385 7.089231 33.083077-1.575385 14.966154-8.664615 29.932308-13.390769 44.898462-11.027692 37.021538-7.876923 70.104615 25.993846 95.310769 15.753846 11.815385 29.932308 25.993846 45.686154 39.384615-2.363077-29.144615-3.938462-56.713846-6.301538-86.646154 70.892308 29.932308 95.310769 113.427692 60.652308 189.833846 61.44-33.870769 100.036923-126.030769 85.858462-185.895385-3.150769-11.815385-3.150769-29.144615 3.150769-37.809231 9.452308-12.603077 27.569231-28.356923 38.596923-26.781538 22.843077 3.938462 33.870769 25.206154 27.569231 48.836923-5.513846 21.267692-14.966154 40.96-25.993846 67.741538C677.415385 466.707692 731.766154 403.692308 748.307692 316.258462c19.692308-103.187692-70.892308-222.916923-185.107692-211.889231 4.726154 14.966154 9.452308 29.144615 12.603077 44.110769 6.301538 25.993846 0.787692 51.987692-22.055385 65.378462-41.747692 25.206154-42.535385 58.289231-27.569231 97.673846 1.575385 3.938462 1.575385 7.876923 3.938462 14.966154C456.073846 254.030769 440.32 190.227692 474.978462 107.52z"  horiz-adv-x="1024" />

    
    <glyph glyph-name="sousuo" unicode="&#58909;" d="M933.583-11.509c-32.726-32.727-85.787-32.727-118.513 0l-144.113 144.116c-55.363-34.164-119.965-54.836-189.797-54.836-200.552 0-363.135 162.584-363.135 363.14 0 200.561 162.583 363.145 363.135 363.145 200.558 0 363.141-162.584 363.141-363.145 0-69.825-20.672-134.432-54.832-189.794l144.115-144.11c32.726-32.728 32.726-85.792-0.001-118.516zM481.16 692.318c-138.841 0-251.404-112.558-251.404-251.408 0-138.847 112.563-251.402 251.404-251.402 138.847 0 251.406 112.554 251.406 251.402 0 138.85-112.559 251.408-251.406 251.408z"  horiz-adv-x="1024" />

    
    <glyph glyph-name="sousuofangdajing" unicode="&#59340;" d="M956.9 17.4 713.8 260.2c105.6 143.4 93.5 347-36.3 476.6C534.4 879.7 301.2 882 158 736.8 14.9 593.8 14.9 361 158 218c129.8-129.6 333.6-141.7 477.2-36.2l243.1-242.7c20.8-20.8 55.4-20.8 78.5 0C977.6-40.2 977.6-3.3 956.9 17.4zM236.5 291.8c-99.3 99.1-99.3 262.8 0 362s263.2 99.1 362.5 0 99.3-260.5 0-362C499.7 192.7 335.8 192.7 236.5 291.8z"  horiz-adv-x="1024" />

    
    <glyph glyph-name="sousuo1" unicode="&#58964;" d="M451.025277 60.104145c-212.453716 0-385.300366 172.845627-385.300366 385.29525 0 212.443483 172.84665 385.28911 385.300366 385.28911S836.331783 657.842879 836.331783 445.399395C836.331783 232.949772 663.480017 60.104145 451.025277 60.104145M451.025277 735.85565c-160.161746 0-290.461371-130.299625-290.461371-290.456255 0-160.157653 130.299625-290.457278 290.461371-290.457278s290.466488 130.299625 290.466488 290.457278C741.492788 605.555002 611.187023 735.85565 451.025277 735.85565M901.042597-62.956611c-14.941294 0-29.872355 5.701862-41.268916 17.092283L658.470933 155.422048c-22.786982 22.786982-22.786982 59.739593 0 82.536808 22.804379 22.782889 59.750849 22.782889 82.541925 0l201.303772-201.287399c22.788006-22.786982 22.788006-59.739593 0-82.536808C930.914952-57.255773 915.983891-62.956611 901.042597-62.956611"  horiz-adv-x="1024" />

    
    <glyph glyph-name="fangzi1" unicode="&#59044;" d="M813.498752 405.729907l-85.044932 69.801762c0.200568 1.723248 0.300852 3.474125 0.300852 5.246491l0 97.4034c0 24.679076-20.012799 44.688805-44.672432 44.688805l-33.821293 0c-24.677029 0-44.688805-20.012799-44.688805-44.688805l0-1.771343-67.575048 55.471382c-17.171078 14.103206-41.882899 14.245446-59.201333 0.317225L207.404724 414.270421c-20.228717-16.241916-23.455201-45.806255-7.205099-66.018599 16.232706-20.231787 45.790906-23.457248 66.018599-7.220449l241.650689 194.058764 246.027369-201.968921c20.046568-16.449647 49.637514-13.543458 66.106604 6.503111C836.452533 359.678058 833.547367 389.257747 813.498752 405.729907L813.498752 405.729907zM279.894711 326.31009l0-245.73675c0-24.677029 20.012799-44.688805 44.688805-44.688805l166.732395 0c-0.652869 2.825348-0.985444 5.749958-0.985444 8.736988L490.330468 225.473497c0 24.686239 23.121604 44.688805 51.66059 44.688805L585.693396 270.162302c28.538987 0 51.66059-20.005636 51.66059-44.688805l0-180.851974c0-2.986007-0.335644-5.91164-0.986467-8.736988l51.881624 0c24.676006 0 44.684712 20.011776 44.684712 44.688805L732.933855 321.063599 506.417865 500.834962l-226.51906-174.525895L279.894711 326.309066zM279.894711 326.31009"  horiz-adv-x="1024" />

    
    <glyph glyph-name="gouwuche" unicode="&#58898;" d="M1024 679.152c0 23.04-18.592 41.744-41.664 41.744L211.84 720.896l-21.808 102.704c-0.864 4.048-2.288 7.824-4.16 11.312C180.496 851.76 164.736 864 146.16 864L41.68 864C18.672 864 0 845.456 0 822.224c0-23.056 18.704-41.744 41.68-41.744l72.16 0 133.392-627.808c3.92-18.48 19.424-31.504 37.376-32.96 3.76-1.12 7.728-1.728 11.856-1.728l542.976 0c22.96 0 41.568 18.528 41.568 41.76 0 23.04-18.752 41.744-41.568 41.744L322.208 201.488l-22.72 106.96 563.216 0c9.888 0 18.992 3.456 26.128 9.232 6.896 4.72 12.4 11.536 15.456 19.92l114.336 314.304c1.408 3.888 2.208 7.84 2.432 11.76C1022.96 668.432 1024 673.664 1024 679.152L1024 679.152 1024 679.152zM835.216 391.952 281.728 391.952 229.6 637.376l694.912 0L835.216 391.952 835.216 391.952zM281.248-12.48c0 46.144 37.36 83.536 83.472 83.536s83.488-37.392 83.488-83.536c0-46.128-37.376-83.52-83.488-83.52S281.248-58.608 281.248-12.48L281.248-12.48zM677.76-12.48c0 46.144 37.376 83.536 83.488 83.536s83.472-37.392 83.472-83.536c0-46.128-37.36-83.52-83.472-83.52S677.76-58.608 677.76-12.48z"  horiz-adv-x="1024" />

    
    <glyph glyph-name="shanchu" unicode="&#58935;" d="M512.68408 830.373327c-246.524696 0-446.373327-199.847607-446.373327-446.372304 0-246.52572 199.848631-446.372304 446.373327-446.372304 246.523673 0 446.372304 199.846584 446.372304 446.372304C959.056384 630.52572 759.207753 830.373327 512.68408 830.373327zM706.28952 241.047194c13.986549-13.987572 13.986549-36.664038 0-50.65161-6.993275-6.993275-16.160051-10.489912-25.325805-10.489912s-18.331507 3.496637-25.325805 10.489912L512.68408 333.349413 369.729228 190.395584c-6.993275-6.993275-16.159028-10.489912-25.325805-10.489912-9.165754 0-18.332531 3.496637-25.325805 10.489912-13.986549 13.987572-13.986549 36.664038 0 50.65161l142.953829 142.953829L319.077617 526.955876c-13.986549 13.986549-13.986549 36.664038 0 50.650587 13.985526 13.987572 36.664038 13.987572 50.650587 0l142.955876-142.954853 142.953829 142.954853c13.986549 13.987572 36.663014 13.987572 50.65161 0 13.986549-13.986549 13.986549-36.664038 0-50.650587L563.334667 384.001023 706.28952 241.047194z"  horiz-adv-x="1024" />

    
    <glyph glyph-name="shouji" unicode="&#59009;" d="M160.036364-108.704545 160 876.704545l704 0-0.081818-985.409091L160.036364-108.704545zM518.509091-69.104545c36.295455 0 65.695455 29.4 65.695455 65.695455 0 36.3-29.4 65.690909-65.695455 65.690909-36.3 0-65.690909-29.395455-65.690909-65.690909C452.813636-39.7 482.209091-69.104545 518.509091-69.104545L518.509091-69.104545zM793.331818 806.281818 230.368182 806.281818l0-703.540909 562.963636 0L793.331818 806.281818 793.331818 806.281818z"  horiz-adv-x="1024" />

    
    <glyph glyph-name="seeuser" unicode="&#59423;" d="M345.763396 694.345234c23.812335 29.027104 53.188386 47.91222 80.491219 60.169381 13.139252 5.898337 26.89658 10.092869 40.590464 12.890588 15.122419 3.089361 30.256094 4.466732 44.416606 4.552689l0.080841 0 0.656963 0.001023 0.656963-0.001023 0.080841 0c14.160511-0.085958 29.293163-1.463328 44.416606-4.552689 13.693884-2.797719 27.451212-6.992251 40.590464-12.890588 27.303856-12.257162 56.679907-31.142278 80.490196-60.169381 18.919908-23.064298 34.198893-52.305273 41.965787-89.354074 5.513574-26.299993 7.27366-55.94415 4.76349-84.952834-2.38021-27.533077-8.609075-54.831816-19.123546-78.636988-5.731538-12.974499-13.662161-28.107151-24.632004-45.046962-8.782014-13.558807-19.430538-28.127617-32.337499-43.444465-2.281973-4.033873-10.17985-20.394493 5.689582-29.870308 18.24248-10.894118 62.590524-37.638225 103.817484-62.847373 27.00812-16.514115 53.829999-33.085536 73.069179-45.339628 14.011108-8.9263 30.843472-20.164249 44.925189-34.5724 15.693424-16.056698 27.712155-35.671431 29.182646-59.82555 0.432859-7.096628 0.63138-15.47239 0.665149-24.228821 0.035816-9.708106-0.157589-19.244296-0.477884-27.582195-0.740874-19.304671-4.740978-36.20662-14.56881-49.251727-10.765181-14.289448-27.005051-22.819728-51.15303-23.352871l-0.405229 0c-94.846158 0.343831-203.744357 0.515746-327.616596 0.515746s-232.770438-0.171915-327.616596-0.515746l-0.404206 0c-24.14798 0.533143-40.387849 9.063423-51.152007 23.352871-9.827833 13.045107-13.82896 29.947056-14.56881 49.251727-0.320295 8.337899-0.5137 17.875113-0.477884 27.583219 0.031722 8.755408 0.233314 17.130146 0.664126 24.227798 1.471514 24.15412 13.490246 43.767829 29.183669 59.82555 14.08274 14.408151 30.913057 25.647123 44.925189 34.5724 19.237133 12.253068 46.056965 28.822442 73.062016 45.336558 41.229007 25.209148 85.580121 51.955302 103.823624 62.850443 15.869433 9.476839 7.971555 25.836435 5.689582 29.870308-12.904914 15.316847-23.554462 29.885658-32.336476 43.444465-10.970866 16.939811-18.902512 32.072463-24.632004 45.046962-10.514471 23.805172-16.743336 51.103912-19.12457 78.636988-2.51017 29.008684-0.748037 58.652841 4.76349 84.952834C311.565527 642.039961 326.843488 671.281959 345.763396 694.345234"  horiz-adv-x="1024" />

    
    <glyph glyph-name="quanchangbaoyou" unicode="&#58934;" d="M886.317178 463.150994 138.501449 463.150994c-50.754872 0-92.095533 41.340662-92.095533 92.095533L46.405916 684.077945c0 50.345558 40.931348 91.276906 91.174578 91.276906l748.736684 0c50.345558 0 91.174578-40.931348 91.174578-91.276906l0-129.752373C977.594084 504.082342 936.662736 463.150994 886.317178 463.150994zM137.682822 727.260518c-23.84251 0-43.182572-19.340062-43.182572-43.182572l0-128.831418c0-24.251824 19.749375-44.001199 44.001199-44.001199l747.815729 0c23.84251 0 43.182572 19.340062 43.182572 43.182572L929.49975 684.077945c0 23.84251-19.340062 43.182572-43.182572 43.182572L137.682822 727.260518zM810.696512-7.354852l-596.574398 0c-50.754872 0-92.095533 41.340662-92.095533 92.095533L122.026581 487.198161c0 13.302688 10.744479 24.047167 24.047167 24.047167l731.750175 0c13.302688 0 24.047167-10.744479 24.047167-24.047167l0-403.276107C901.973419 33.576496 861.042071-7.354852 810.696512-7.354852zM170.120915 463.150994l0-378.410313c0-24.251824 19.749375-44.001199 44.001199-44.001199l596.574398 0c23.84251 0 43.182572 19.340062 43.182572 43.182572L853.879085 463.150994 170.120915 463.150994zM519.674628 213.367443 519.674628 484.435295 567.768962 484.435295 567.768962 306.48626 642.468672 359.697012 717.270711 306.48626 717.270711 484.435295 765.262716 484.435295 765.262716 213.367443 642.468672 300.755871Z"  horiz-adv-x="1024" />

    
    <glyph glyph-name="goumai" unicode="&#58890;" d="M512 768c-212.096 0-384-171.904-384-384s171.904-384 384-384 384 171.904 384 384-171.904 384-384 384z m0-682.666667a298.666667 298.666667 0 1 0 0 597.333334 298.666667 298.666667 0 0 0 0-597.333334zM661.376 580.778667a29.866667 29.866667 0 0 1-22.058667 8.533333 30.592 30.592 0 0 1-22.357333-8.405333c-5.717333-5.589333-12.330667-14.634667-19.925333-27.093334l-87.466667-137.045333-78.250667 129.194667-9.216 15.829333a125.354667 125.354667 0 0 1-9.472 14.08 37.248 37.248 0 0 1-11.52 9.6 33.706667 33.706667 0 0 1-16.384 3.84 30.336 30.336 0 0 1-22.058666-8.277333 27.093333 27.093333 0 0 1-8.533334-20.181334c0-6.314667 1.109333-12.117333 3.370667-17.322666 2.261333-5.205333 5.802667-11.818667 10.709333-19.754667l77.994667-128.64h-34.432c-25.472 0-38.186667-8.32-38.186667-24.917333 0-16.981333 12.714667-25.472 38.186667-25.472h61.226667v-38.997334H411.776c-25.472 0-38.186667-8.490667-38.186667-25.472 0-16.597333 12.714667-24.917333 38.186667-24.917333h61.226667v-21.674667c0-36.650667 12.202667-54.997333 36.565333-54.997333 24.746667 0 37.12 18.346667 37.12 54.997333v21.674667h60.928c25.642667 0 38.442667 8.32 38.442667 24.917333 0 16.981333-12.8 25.472-38.442667 25.472h-60.928v38.997334h60.928c25.642667 0 38.442667 8.490667 38.442667 25.472 0 16.597333-12.8 24.917333-38.442667 24.917333h-34.389333l80.981333 127.018667a203.52 203.52 0 0 1 12.714667 21.674666 34.474667 34.474667 0 0 1 2.986666 14.336 30.592 30.592 0 0 1-8.533333 22.613334z"  horiz-adv-x="1024" />

    
    <glyph glyph-name="fangzi2" unicode="&#59014;" d="M1014.542706 406.803907S694.565696 726.8136 693.971264 727.374327L534.717628 886.627963c-6.218044 6.248685-14.431828 9.372006-22.618034 9.372006a31.883819 31.883819 0 0 1-22.615992-9.372006L351.877708 735.683097V799.659093c0 17.681798-14.3062 31.990041-31.986977 31.990041H191.936696c-17.681798 0-31.990041-14.308243-31.99004-31.990041v-255.903984L9.065114 383.812054c-12.494306-12.557631-11.870255-32.113625 0.625073-44.607931 12.52699-12.528011 30.832839-14.431828 43.358807-1.874197l42.922687 46.482128v-447.834015c0-35.301292 28.676746-63.978039 63.974975-63.978039h703.744128c35.298228 0 63.977017 28.676746 63.977017 63.978039V403.180119l42.140324-42.108662c12.494306-12.495328 31.582518-11.372852 44.109508 1.124518 12.495328 12.494306 13.151041 32.111583 0.625073 44.607932M287.900691 767.672116v-95.966037l-63.977018-63.977017V767.672116h63.977018z m287.895046-831.694077H447.843745V191.881002h127.951992v-255.902963z m287.896068 31.985955c0-17.681798-14.308243-31.985955-31.989019-31.985955H639.771733V223.871043c0 17.681798-14.3062 31.986977-31.985955 31.986976H415.853704c-17.680776 0-31.986977-14.3062-31.986977-31.986976v-287.893004H191.936696c-17.681798 0-31.990041 14.305179-31.99004 31.985955v479.825078l352.152938 370.958233 351.59119-351.589148v-499.194163z"  horiz-adv-x="1025" />

    
    <glyph glyph-name="dingbu" unicode="&#59040;" d="M28.444444 896v-113.777778h967.111112V896H28.444444z m0.028445-625.777778H341.333333v-398.222222h341.333334V270.222222h312.860444L512 782.193778 28.472889 270.222222z"  horiz-adv-x="1024" />

    
    <glyph glyph-name="shunfengbaoyou" unicode="&#58886;" d="M285.7 456.5l-46.6-64.8c-4.1-6.1-8.6-13.3-8.6-18.9h117.7v88.9h-54.1c-3.5 0.1-8.4-5.2-8.4-5.2zM510.7 830.9C264.1 830.9 64.2 631 64.2 384.4S264.1-62 510.7-62s446.4 199.9 446.4 446.4S757.2 830.9 510.7 830.9zM315.1 177c-28.2 0-51.1 23-51.1 51.4s22.9 51.4 51.1 51.4c28.2 0 51.1-23 51.1-51.4S343.3 177 315.1 177z m99.5 84.7c0-12.2-9.9-22.1-22-22.2-5.4 38.3-38 67.9-77.5 67.9-39.6 0-72.1-29.6-77.5-67.9h-22c-12.2 0-22.1 10-22.1 22.2V372.9c0 21.1 16.9 44.9 16.9 44.9l49.4 66.2c10.1 12.2 16.9 22.2 33.2 22.2h99.5c12.2 0 22.1-10 22.1-22.2v-222.3zM624.7 177c-28.2 0-51.1 23-51.1 51.4s22.9 51.4 51.1 51.4c28.2 0 51.1-23 51.1-51.4S652.9 177 624.7 177z m143.7 84.7c0-12.2-9.9-22.2-22.1-22.2h-44.1c-5.4 38.3-37.9 67.9-77.5 67.9s-72.1-29.6-77.5-67.9h-88.3c-12.2 0-22.1 10-22.1 22.2V572.9c0 12.2 9.9 22.2 22.1 22.2h287.4c12.2 0 22.1-10 22.1-22.2v-311.2z"  horiz-adv-x="1024" />

    
    <glyph glyph-name="jiantou" unicode="&#58901;" d="M116.044 224.015l344.761-344.761c3.25-3.227 7.414-5.537 12.069-6.511-4.416 1.381-4.336 1.327-4.24 1.286 2.287-0.955 4.937-1.577 7.712-1.729-3.582 0.467-3.358 0.363-3.111 0.315 1.598-0.32 3.22-0.486 4.834-0.487h48.79c8.073 0.011 15.222 3.961 19.629 10.031l341.854 341.856c4.414 4.41 7.144 10.505 7.144 17.237s-2.729 12.827-7.142 17.237l-34.474 34.482c-4.412 4.41-10.505 7.137-17.237 7.137s-12.825-2.727-17.237-7.137l-268.152-268.16v846.806c0 0.001 0 0.006 0 0.008 0 13.462-10.913 24.375-24.375 24.375-0.003 0-0.006 0-0.008 0h-48.758c0 0 0 0 0 0-13.462 0-24.375-10.913-24.375-24.375 0-0.003 0-0.006 0-0.008v-847.373l-268.727 268.727c-4.412 4.41-10.505 7.137-17.237 7.137s-12.825-2.727-17.237-7.137l-34.474-34.482c-4.417-4.411-7.148-10.507-7.148-17.241 0-6.73 2.728-12.823 7.14-17.233z"  horiz-adv-x="1024" />

    
    <glyph glyph-name="xinpin" unicode="&#58891;" d="M192.288 793.664c2.304 0 4.592-0.032 6.88-0.064l-0.016 0.064h-6.864zM58.064 374.432a90.736 90.736 0 0 1 0-128.16l316.16-316.16a90.016 90.016 0 0 1 64.096-26.544 89.92 89.92 0 0 1 64.064 26.544l143.584 143.568L158.16 474.512M975.312 757.488l-0.128 1.264a103.04 103.04 0 0 1-88.464 88.464l-0.624 0.08-300.88 17.12-1.408 0.016a85.68 85.68 0 0 1-60.976-25.248l-311.52-311.52L696 124.496l-49.36-50.144 320.512 320.496a86.72 86.72 0 0 1 25.28 61.504v0.448l-17.12 300.688z m-149.744-156.16a67.744 67.744 0 0 0-48.128-19.952 68.08 68.08 0 1 0 0 136.192c17.44 0 34.88-6.64 48.128-19.952a68.08 68.08 0 0 0 0-96.288z"  horiz-adv-x="1024" />

    
    <glyph glyph-name="goumai1" unicode="&#59195;" d="M938.726888 414.712773c-0.722653 15.175723-13.007763 26.015526-28.183486 25.292873s-26.015526-13.730416-25.292873-28.183487c0-6.503881 0.722653-13.007763 0.722654-20.234297 0-211.737474-171.991531-384.451658-384.451659-384.451659s-384.451658 171.991531-384.451658 384.451659 171.991531 384.451658 384.451658 384.451658c56.366972 0 110.565984-11.562456 161.151729-35.410021l17.343684-8.671842c13.007763-7.226535 29.628793-2.16796 36.132675 11.562456 7.226535 13.007763 2.16796 29.628793-11.562456 36.132675-6.503881 3.613267-13.007763 6.503881-19.511644 9.394495-57.812279 26.738179-119.237826 40.468596-183.553988 40.468596-241.366267 0-437.928017-196.56175-437.928017-437.928017s196.56175-437.928017 437.928017-437.928017S939.449541 150.221595 939.449541 391.587862c0 7.949188-0.722653 15.175723-0.722653 23.124911zM893.199718 518.052223m-28.90614 0a28.90614 28.90614 0 1 1 57.812279 0 28.90614 28.90614 0 1 1-57.812279 0ZM849.840508 612.719831m-28.90614 0a28.90614 28.90614 0 1 1 57.81228 0 28.90614 28.90614 0 1 1-57.81228 0ZM779.743119 694.379675m-28.906139 0a28.90614 28.90614 0 1 1 57.812279 0 28.90614 28.90614 0 1 1-57.812279 0ZM622.927311 514.438956l36.855328 83.105151c5.781228 13.730416 0 29.628793-13.730416 35.410021-13.730416 5.781228-29.628793 0-35.410021-13.730416l-43.35921-98.280875-2.16796-6.503881h-99.726182c-0.722653 2.16796-0.722653 4.335921-2.167961 6.503881l-43.359209 98.280875c-5.781228 13.730416-21.679605 19.511644-35.410022 13.730416s-19.511644-21.679605-13.730416-35.410021l36.855328-83.105151h-96.112914c-15.175723 0-26.738179-12.285109-26.73818-26.73818s12.285109-26.738179 26.73818-26.738179h168.378264v-137.304164h-168.378264c-15.175723 0-26.738179-12.285109-26.73818-26.738179s12.285109-26.738179 26.73818-26.738179h168.378264v-134.41355c0-15.175723 12.285109-26.738179 26.738179-26.738179 15.175723 0 26.738179 12.285109 26.738179 26.738179v134.41355h169.100917c15.175723 0 26.738179 12.285109 26.73818 26.738179s-12.285109 26.738179-26.73818 26.738179h-169.82357v137.304164h169.100917c15.175723 0 26.738179 12.285109 26.738179 26.738179s-12.285109 26.738179-26.738179 26.73818h-78.769231z"  horiz-adv-x="1024" />

    
    <glyph glyph-name="fa-comments" unicode="&#58975;" d="M1024 316.1088c0-100.7104-59.6992-194.9696-155.8528-245.8624a20.8384 20.8384 0 0 1-10.3936-13.2096 24.2688 24.2688 0 0 1 2.4064-18.1248c2.6112-4.7616 5.5296-9.3696 8.5504-13.824a34.048 34.048 0 0 0-0.1024-38.1952 27.6992 27.6992 0 0 0-22.6816-12.4928 26.4704 26.4704 0 0 0-10.5472 2.2016 321.0752 321.0752 0 0 0-74.24 44.4416 48.2816 48.2816 0 0 1-32.7168 10.752c-6.4-0.3584-12.9536-0.512-19.5072-0.512-52.5824 0-96.768 17.3568-96.768 17.3568-26.7776 7.8848-28.5696 24.576-3.4816 36.1472 0 0 229.9904 79.36 229.9904 341.4528 0 58.1632-22.6816 113.7664-22.6816 113.7664-8.8064 27.392 3.584 37.4784 28.0064 23.5008 0 0 180.0192-83.5584 180.0192-247.3984zM384 742.4c141.312 0 264.704-65.2288 331.4176-161.9456 33.1776-48.1792 52.5824-104.0896 52.5824-163.84 0-154.8288-127.8976-284.4672-298.6496-317.5936a450.56 450.56 0 0 0-109.1584-7.7312l-2.7648 0.0512a61.44 61.44 0 0 1-37.0688-12.3392 395.1104 395.1104 0 0 0-90.5216-50.8416 33.792 33.792 0 0 0-40.448 11.776 36.864 36.864 0 0 0-0.1024 43.6224c3.6864 5.12 7.168 10.3936 10.2912 15.872a26.2656 26.2656 0 0 1 3.072 20.6848 24.2176 24.2176 0 0 1-12.8 15.104C72.8576 193.4336 0 301.312 0 416.5632 0 596.224 172.2368 742.4 384 742.4z"  horiz-adv-x="1024" />

    
    <glyph glyph-name="hengxian" unicode="&#58978;" d="M32 832h960v-128H32zM32 448h960v-128H32zM32 64h960v-128H32z"  horiz-adv-x="1024" />

    
    <glyph glyph-name="kefu" unicode="&#58976;" d="M915.3024 324.9152c22.9376-20.0704 43.52-52.5312 30.72-99.9936a97.2288 97.2288 0 0 0-46.08-59.4944c-16.7936-13.4656-38.0928-21.504-61.2352-21.504a16.4352 16.4352 0 0 0-3.4816 0.3584C798.3616-17.7664 663.8592-128 488.6016-128c-175.616 0-310.0672 109.9776-347.136 271.872a97.3824 97.3824 0 0 0-50.6368 14.5408 97.536 97.536 0 0 0-61.3376 66.5088c-11.52 43.0592 4.3008 73.728 24.4736 94.0544a688.64 688.64 0 0 0-0.256 35.9936c-2.6112 133.2224 37.1712 245.6576 115.0464 325.12a372.0704 372.0704 0 0 0 134.144 86.8864C310.9376 839.168 389.3248 896 484.5568 896s173.568-56.832 181.6576-129.024a372.1216 372.1216 0 0 0 134.144-86.8352c77.824-79.5136 117.6064-192.1536 114.9952-325.7856 0.2048-9.8816 0.1536-19.7632-0.0512-29.44z m-426.0864-420.0448c148.5824 0 262.4 83.3536 304.9472 212.992a368.64 368.64 0 0 0-143.36-102.8096 413.696 413.696 0 0 0-107.9296-27.0848c-4.1984-16.7424-25.9072-29.5936-52.2752-29.5936-29.44 0-53.248 15.872-53.248 35.5328 0 19.6096 23.808 35.4816 53.248 35.4816 20.736 0 38.5536-7.936 47.36-19.5072 117.5552 12.9024 212.48 72.8064 269.6704 164.1984a401.92 401.92 0 0 1 4.7616 62.3104l0.0512 2.9184a16.5376 16.5376 0 0 0-1.536 1.6896c-44.4416 57.7536-109.7728 71.5776-178.8928 86.272-34.4576 7.2704-70.144 14.848-104.9088 28.0064-126.0544 47.8208-193.024 158.208-195.7888 162.816a16.4352 16.4352 0 0 0 28.2624 16.896c0.6144-1.024 64.1024-105.2672 179.2-148.9408 32.4096-12.288 66.7648-19.5584 100.0448-26.624 63.488-13.4656 129.024-27.3408 179.1488-76.8 0.512 0.512 1.024 1.0752 1.6384 1.536 0.9728 15.872 1.9456 28.5696 2.7648 33.3824a38.7072 38.7072 0 0 0 40.8064 34.048v2.7648c2.4064 120.1152-32.256 219.904-100.1472 289.28-65.536 66.8672-161.4336 102.2464-277.248 102.2464l0.3072-19.3024h-1.3312l-0.3072 19.2512H483.328c-115.8144 0-211.6608-35.328-277.248-102.1952-67.9424-69.376-102.5536-169.1648-100.096-288.6144l-0.0512-3.9936c24.6272 6.5024 42.9568-12.288 45.568-14.1312 92.416 30.72 132.7104 128.5632 133.12 129.5872a16.4352 16.4352 0 0 0 30.5664-12.1856c-1.8944-4.7616-45.056-110.3872-148.992-147.1488-1.3312-21.504-2.56-43.8784-2.304-51.8144l0.3584-18.6368c0-195.4816 133.12-331.776 323.7888-331.776h1.2288zM484.5568 863.0784c-70.9632 0-130.5088-35.9936-145.7152-84.1216 44.288 12.6464 92.672 19.0976 144.4352 19.0976h2.56c51.712 0 100.096-6.4512 144.384-19.0976-15.2064 48.128-74.752 84.1216-145.664 84.1216z m151.8592-683.008c26.0608 0 48.1792 16.384 57.088 39.3216l-44.8512 22.3744 44.8512 22.3744a61.2352 61.2352 0 0 1-57.088 39.2192 61.5936 61.5936 0 1 1 0-123.2384zM349.0304 303.616a61.5936 61.5936 0 1 1 0-123.2384c26.112 0 48.128 16.384 57.0368 39.2192l-44.7488 22.4256 44.7488 22.3232a61.0816 61.0816 0 0 1-57.0368 39.2704z"  horiz-adv-x="1024" />

    
    <glyph glyph-name="arrow" unicode="&#58881;" d="M512.133 271.019l-292.16 292.155c-12.27 12.28-32.186 12.28-44.457 0-12.281-12.27-12.281-32.186 0-44.457l314.388-314.388c12.27-12.28 32.186-12.28 44.457 0l314.387 314.388c6.14 6.136 9.211 14.183 9.211 22.228s-3.071 16.092-9.211 22.228c-12.27 12.28-32.186 12.28-44.457 0l-292.159-292.155z"  horiz-adv-x="1024" />

    
    <glyph glyph-name="sousuo2" unicode="&#58888;" d="M935.069 47.793l-201.967 202.028c39.366 57.006 62.59 126.027 62.59 200.421 0 194.963-158.686 353.597-353.638 353.597-194.997 0-353.597-158.635-353.597-353.597 0-194.953 158.601-353.584 353.597-353.584 78.114 0 150.108 25.795 208.684 68.785l200.905-201.018c10.713-10.655 25.48-17.244 41.786-17.251 14.998 0 30.13 5.803 41.636 17.251 23.006 23.064 23.006 60.416 0.003 83.367M206.415 450.243c0 129.911 105.735 235.639 235.639 235.639 129.952 0 235.66-105.731 235.66-235.639s-105.708-235.66-235.66-235.66c-129.905 0-235.639 105.752-235.639 235.66z"  horiz-adv-x="1024" />

    
    <glyph glyph-name="ren" unicode="&#58981;" d="M502.39082734391536 818.9648592592592c122.68228239576717 0 222.12945215661372-97.42325164021165 222.12945215661372-217.62445897142857s-99.44938896931217-217.64443184761902-222.12945215661372-217.64443184761902c-122.6645287280423 0-222.10947928042327 97.4410053079365-222.10947928042327 217.64443184761902C280.2680328126985 721.5416076190477 379.7307370328043 818.9648592592592 502.39082734391536 818.9648592592592M419.09727600423275 311.12785161481486h185.11971257566137c158.46036127830686 0 286.8970512253968-125.84465445925925 286.8970512253968-281.1049171301587v-18.11761791322751c0-61.185796605290996-128.46332044867725-63.5181847026455-286.8970512253968-63.5181847026455h-185.11971257566137c-158.45592286137563 0-286.93255856084653 0.06879546243386243-286.93255856084653 63.5181847026455v18.11761791322751c0 155.25804346243382 128.47663569947088 281.1049171301587 286.93255856084653 281.1049171301587"  horiz-adv-x="1024" />

    
    <glyph glyph-name="wechat" unicode="&#58893;" d="M405.333333 725.333333C228.693333 725.333333 85.333333 610.56 85.333333 469.333333 85.333333 388.693333 131.413333 317.44000000000005 203.946667 270.506667L170.666667 170.66666699999996 277.333333 234.66666699999996C315.306667 221.44000000000005 357.12 213.33333300000004 401.493333 213.33333300000004 390.4 240.21333300000003 384 268.79999999999995 384 298.66666699999996 384 439.893333 517.546667 554.666667 682.666667 554.666667 690.773333 554.666667 698.88 554.666667 706.56 553.386667 663.04 653.226667 545.28 725.333333 405.333333 725.333333M277.333333 618.666667C300.8 618.666667 320 599.4666669999999 320 576 320 552.5333330000001 300.8 533.333333 277.333333 533.333333 253.866667 533.333333 234.666667 552.5333330000001 234.666667 576 234.666667 599.4666669999999 253.866667 618.666667 277.333333 618.666667M490.666667 618.666667C514.133333 618.666667 533.333333 599.4666669999999 533.333333 576 533.333333 552.5333330000001 514.133333 533.333333 490.666667 533.333333 467.2 533.333333 448 552.5333330000001 448 576 448 599.4666669999999 467.2 618.666667 490.666667 618.666667M682.666667 512C541.44 512 426.666667 416.426667 426.666667 298.66666699999996 426.666667 180.90666699999997 541.44 85.33333300000004 682.666667 85.33333300000004 711.253333 85.33333300000004 738.56 88.746667 764.16 96L853.333333 42.66666699999996 826.88 122.45333300000004C893.866667 161.27999999999997 938.666667 225.70666700000004 938.666667 298.66666699999996 938.666667 416.426667 823.893333 512 682.666667 512M597.333333 405.333333C620.8 405.333333 640 386.133333 640 362.66666699999996 640 339.20000000000005 620.8 320 597.333333 320 573.866667 320 554.666667 339.20000000000005 554.666667 362.66666699999996 554.666667 386.133333 573.866667 405.333333 597.333333 405.333333M768 405.333333C791.466667 405.333333 810.666667 386.133333 810.666667 362.66666699999996 810.666667 339.20000000000005 791.466667 320 768 320 744.533333 320 725.333333 339.20000000000005 725.333333 362.66666699999996 725.333333 386.133333 744.533333 405.333333 768 405.333333Z"  horiz-adv-x="1024" />

    
    <glyph glyph-name="wenhao" unicode="&#58927;" d="M512.018898 896C229.155575 896 0 666.844425 0 383.981102c0-282.825527 229.155575-511.981102 512.018898-511.981102 282.825527 0 511.981102 229.155575 511.981102 511.981102C1024 666.844425 794.844425 896 512.018898 896z m56.920385-853.390027h-113.84077v113.840771h113.84077v-113.840771z m129.563799 371.154173c-55.63533-84.927029-128.467722-97.324032-128.467722-200.27963h-115.579375v33.676005c-2.116561 65.04647 28.157827 117.809323 87.459344 158.099583 61.418078 44.90134 81.789983 57.6763 81.789982 120.341638 0 68.032333-66.558299 86.703429-112.593511 86.703429-76.914332 0-112.933673-59.18813-112.933673-114.974643l-113.349426 0.377958c0 163.504374 125.103901 227.152401 253.685011 227.152401 120.719595 0 200.922157-90.06725 201.035544-174.880892 0.113387-53.896726-10.998561-92.297199-41.046174-136.215849z"  horiz-adv-x="1024" />

    
    <glyph glyph-name="huore" unicode="&#59037;" d="M512-128A512 512 0 1 0 512 896a512 512 0 0 0 0-1024z m-10.816 261.44c135.424 0 245.12 103.808 245.12 230.72 0 40-8.512 94.336-34.176 135.68-10.688 21.12-17.792 38.016-24.256 79.424-82.624-21.76-79.104-103.168-73.344-143.168-66.304 59.712-81.92 158.784-75.52 267.392-213.12-61.12-144-279.68-131.84-338.688-56.32 30.592-75.52 142.528-75.52 142.528-50.624-24.448-75.52-89.6-75.52-142.528 0-127.552 109.696-231.36 245.12-231.36z"  horiz-adv-x="1024" />

    
    <glyph glyph-name="quanguobaoyou" unicode="&#58889;" d="M512 811.7c57.8 0 113.8-11.3 166.5-33.6 50.9-21.5 96.7-52.4 136-91.7 39.3-39.3 70.1-85 91.7-136 22.3-52.7 33.6-108.7 33.6-166.5s-11.3-113.8-33.6-166.5c-21.5-50.9-52.4-96.7-91.7-136-39.3-39.3-85-70.1-136-91.7-52.7-22.3-108.7-33.6-166.5-33.6s-113.8 11.3-166.5 33.6c-50.9 21.5-96.7 52.4-136 91.7s-70.1 85-91.7 136c-22.2 52.8-33.5 108.8-33.5 166.6s11.3 113.8 33.6 166.5c21.5 50.9 52.4 96.7 91.7 136s85 70.1 136 91.7c52.6 22.2 108.6 33.5 166.4 33.5m0 20c-247.3 0-447.7-200.4-447.7-447.7S264.7-63.7 512-63.7s447.7 200.4 447.7 447.7S759.3 831.7 512 831.7zM730.3 598.4H459c-20.4 0-36.9-16.6-36.9-36.9v-9.9h-47.9c-3.2 0-6.3-1.3-6.3-1.3-66.7-33.1-87.9-65-110.3-124.3 0 0-0.8-1.9-0.8-4.6v-156.2c0-20.4 16.6-36.9 36.9-36.9h37.8c6.1-33.3 35.3-58.6 70.3-58.6s64.2 25.3 70.3 58.6h86.2c6.1-33.3 35.3-58.6 70.3-58.6s64.2 25.3 70.3 58.6h31.4c20.4 0 36.9 16.6 36.9 36.9V561.4c0 20.4-16.6 37-36.9 37zM282.6 360.9v55.4c0 2.9 0.9 5.1 0.9 5.1 19.1 49.3 37.3 75.7 91.2 103.3 0 0 2 1 4 1h43.4v-164.8H282.6z m119.3-165.5c-20.7 0-38.3 13.9-43.8 32.8h0.1c-1.2 4.1-1.9 8.4-1.9 12.9 0 25.2 20.4 45.6 45.6 45.6s45.6-20.4 45.6-45.6c0-4.5-0.7-8.8-1.9-12.9h0.1c-5.6-18.9-23.1-32.8-43.8-32.8z m226.7 0c-20.7 0-38.3 13.9-43.8 32.8h0.1c-1.2 4.1-1.9 8.4-1.9 12.9 0 25.2 20.4 45.6 45.6 45.6 25.2 0 45.6-20.4 45.6-45.6 0-4.5-0.7-8.8-1.9-12.9h0.1c-5.5-18.9-23.1-32.8-43.8-32.8z"  horiz-adv-x="1024" />

    
    <glyph glyph-name="dingbu1" unicode="&#58904;" d="M629.76 496.64c-20.48 35.84-61.44 56.32-102.4 56.32s-81.92-20.48-102.4-56.32L35.84 5.12C-20.48-66.56 5.12-128 102.4-128h824.32c92.16 0 122.88 61.44 66.56 138.24l-363.52 486.4zM87.04 727.04h849.92c30.72 0 61.44 15.36 76.8 40.96 15.36 25.6 15.36 61.44 0 87.04-20.48 25.6-46.08 40.96-76.8 40.96H87.04C56.32 896 25.6 880.64 10.24 855.04c-15.36-25.6-15.36-61.44 0-87.04s46.08-40.96 76.8-40.96z m0 0"  horiz-adv-x="1030" />

    
    <glyph glyph-name="up" unicode="&#58880;" d="M153.269 544.548l362.024-362.02400001 360.927 360.92700001z"  horiz-adv-x="1024" />

    
    <glyph glyph-name="zuojiantou" unicode="&#58894;" d="M33.98328556 341.37896716L844.32696088 341.37896716 637.3996785 142.17610834000004c-5.2969054-5.29828624-5.2969054-13.88573532 0-19.18540239l41.56330878-41.56468962a13.56952277 13.56952277 0 0 1 19.18678323 0l260.49009791 250.77312103c0.29964246 0.25269386 0.59652324 0.51367279 0.8795956 0.79536432l1.39188755 1.39188755 40.17418291 38.67320893a13.53085923 13.53085923 0 0 1 3.93815803 10.32868936 13.52395502 13.52395502 0 0 1-3.93539635 10.35354449l-41.56607046 40.06509648c-0.26926396 0.2637406-0.54957465 0.5109111-0.83126617 0.7511774l-260.53980818 250.81592711a13.56676109 13.56676109 0 0 1-19.18678324-1e-8l-41.56607045-41.56607045c-5.2969054-5.2969054-5.2969054-13.88573532-1e-8-19.18678324L842.38549869 427.28797896l-808.39945145 0c-7.49244232 0-13.56538025-6.07293793-13.56538024-13.56399939l0-58.78377468c0-7.48968063 6.07293793-13.56538025 13.56538024-13.56538026l-0.00276168 0.00414253z"  horiz-adv-x="1024" />

    
    <glyph glyph-name="icon1" unicode="&#58883;" d="M753.34211034 384.18365184l-403.41955064-403.42645487c-16.9567253-16.9429169-16.9567253-44.44374272 0-61.38804048 16.9429169-16.95810612 44.44374272-16.95810614 61.38804046 0l434.11978467 434.11978468c16.9567253 16.9429169 16.9567253 44.44374272 0 61.38804047l-434.11978467 434.11840384c-8.4728393 8.47836265-19.58446539 12.71892482-30.69332981 12.71892481s-22.22049053-4.24056217-30.69332982-12.71892479c-16.9567253-16.9429169-16.9567253-44.44374272-1e-8-61.38804049l403.41955068-403.42507402z"  horiz-adv-x="1024" />

    
    <glyph glyph-name="jiantouzuo" unicode="&#58884;" d="M765.824 775.552L708.28800001 833.088 257.664 382.4 259.648 380.544 259.264 380.15999999999997 701.312-61.82400000999996 759.296-3.9039999999999964 372.864 382.592Z"  horiz-adv-x="1024" />

    
    <glyph glyph-name="fa-asterisk" unicode="&#59502;" d="M566.4 352l198.4-268.8-76.8-51.2-176 278.4-176-278.4-73.6 51.2 198.4 268.8-297.6 76.8L192 512l291.2-102.4L464 736h96L544 409.6l288 102.4 25.6-86.4-291.2-73.6z"  horiz-adv-x="1024" />

    
    <glyph glyph-name="fa-globe" unicode="&#59685;" d="M512 768C300.288 768 128 595.712 128 384s172.288-384 384-384 384 172.288 384 384S723.712 768 512 768z m0-64c63.008 0 121.568-18.72 171.008-50.016l-26.016-2.976 6.016-64-34.016 15.008-28-24 5.024-66.016 68.992 22.016 85.984-28.032-21.984-40-52 32-56-8L576 449.056l-31.008-96 62.016-51.04s63.552 11.008 66.976 11.008c3.424 0 27.008-57.984 27.008-57.984l-50.976-160C608.32 75.168 561.312 64 512 64c-10.08 0-20.16 1.088-30.016 2.016l-34.976 60.992 33.984 128L352 352H232.992l-30.976 63.008L288 483.008 416 544l-19.008 84.992 55.008 12 26.016-36 96 18.016-17.024 73.984-70.976 5.024c8.544 0.64 17.28 1.984 25.984 1.984z m-36-2.016l-50.016-20.992-24 4a316.288 316.288 0 0 0 74.016 17.024zM193.984 359.04l31.04-36v-66.016l59.968-65.984h36.992l91.008-112c-120.8 39.136-208.928 148.544-219.008 280z"  horiz-adv-x="1024" />

    
    <glyph glyph-name="shouye-shouye-copy" unicode="&#58892;" d="M572.241318 896L8.679906 399.902118a24.696471 24.696471 0 0 1-1.325177-36.382118c10.24-10.420706 27.587765-11.023059 38.610824-1.264941L572.241318 825.464471l526.215529-464.594824a28.190118 28.190118 0 0 1 18.672941-6.987294c7.288471 0 14.576941 2.710588 19.998118 8.192a24.696471 24.696471 0 0 1-1.325177 36.382118L572.241318 896zM936.303435 353.88235299999997a26.925176 26.925176 0 0 1-27.527529-26.262588v-403.034353h-219.979294v280.335059h-293.345883v-280.335059H175.471435v402.974117A26.925176 26.925176 0 0 1 148.004141 353.88235299999997 26.925176 26.925176 0 0 1 120.476612 327.61976500000003V-128h329.968941v280.395294h183.356235V-128H963.770729V327.61976500000003A26.925176 26.925176 0 0 1 936.303435 353.88235299999997zM970.456847 717.703529v-154.202353c0-15.962353 12.047059-28.912941 26.804706-28.912941S1024.006024 547.538824 1024.006024 563.501176V775.529412h-214.136471c-14.817882 0-26.804706-12.950588-26.804706-28.912941s12.047059-28.912941 26.804706-28.912942h160.587294z"  horiz-adv-x="1144" />

    
    <glyph glyph-name="xinpintehui" unicode="&#58948;" d="M827.392 793.6l-234.24-12.928c-44.032-2.432-85.76-20.992-116.992-52.224L124.928 377.216c-29.952-29.952-29.952-78.592 0-108.672l271.744-271.744c29.952-29.952 78.72-29.952 108.672 0l351.104 351.232a179.2 179.2 0 0 1 52.224 116.864L921.6 699.392c-3.968 50.304-43.904 90.24-94.208 94.208z m-30.72-213.632c-24.96-24.96-65.536-24.96-90.496 0s-24.96 65.536 0 90.496 65.536 24.96 90.496 0 24.96-65.408 0-90.496z"  horiz-adv-x="1024" />

    


  </font>
</defs>
</svg>
